<svg width="34" height="34" viewBox="0 0 34 34" fill="none" xmlns="http://www.w3.org/2000/svg">
<path d="M28.165 0C31.7693 3.60423 34 8.58298 34 14.083L33.9941 14.5967C33.7213 25.3585 24.9114 33.9987 14.084 33.999L13.5693 33.9932C8.27359 33.8589 3.49147 31.6569 0 28.165L2.8291 25.3369C5.70951 28.217 9.68882 29.999 14.084 29.999C22.874 29.9987 29.9996 22.873 30 14.083C30 9.68784 28.218 5.70853 25.3379 2.82812L28.165 0Z" fill="#FF8C00"/>
<path d="M23.7627 4.39966C26.2408 6.87759 27.7734 10.301 27.7734 14.0823C27.7734 21.6444 21.6432 27.7745 14.0811 27.7747C10.2997 27.7747 6.87636 26.242 4.39844 23.7639L23.7627 4.39966Z" fill="#FFC300"/>
</svg>
